# AST/ASF file generated using VICON BodyLanguage
# -----------------------------------------------
:version 1.10
:name VICON
:units
  mass 1.0
  length 0.45
  angle deg
:documentation
   .ast/.asf automatically generated from VICON data using
   VICON BodyBuilder and BodyLanguage model FoxedUp or BRILLIANT.MOD
:root
   order TX TY TZ RX RY RZ
   axis XYZ
   position 0 0 0  
   orientation 0 0 0 
:bonedata
  begin
     id 1 
     name lhipjoint
     direction 0.567725 -0.736092 0.368589 
     length 2.42353 
     axis 0 0 0  XYZ
  end
  begin
     id 2 
     name lfemur
     direction 0.34202 -0.939693 0  
     length 7.24894  
     axis 0 0 20  XYZ
    dof rx ry rz
    limits (-160.0 20.0)
           (-70.0 70.0)
           (-60.0 70.0)
  end
  begin
     id 3 
     name ltibia
     direction 0.34202 -0.939693 0   
     length 7.6997   
     axis 0 0 20   XYZ
    dof rx
    limits (-10.0 170.0)
  end
  begin
     id 4 
     name lfoot
     direction 0.100767 -0.276854 0.955614   
     length 2.37556   
     axis -90 7.62852e-016 20   XYZ
    dof rx rz
    limits (-45.0 90.0)
           (-70.0 20.0)
  end
  begin
     id 5 
     name ltoes
     direction 1.53592e-011 -4.21894e-011 1   
     length 1.18363   
     axis -90 7.62852e-016 20   XYZ
    dof rx
    limits (-90.0 20.0)
  end
  begin
     id 6 
     name rhipjoint
     direction -0.556459 -0.742938 0.372017   
     length 2.4012  
     axis 0 0 0  XYZ 
  end
  begin
     id 7 
     name rfemur
     direction -0.34202 -0.939693 0   
     length 7.5119   
     axis 0 0 -20   XYZ
    dof rx ry rz
    limits (-160.0 20.0)
           (-70.0 70.0)
           (-70.0 60.0)
  end
  begin
     id 8 
     name rtibia
     direction -0.34202 -0.939693 0   
     length 7.50155   
     axis 0 0 -20   XYZ
    dof rx
    limits (-10.0 170.0)
 end
 begin
     id 9 
     name rfoot
     direction -0.118427 -0.325376 0.938139   
     length 2.32487  
     axis -90 -7.62852e-016 -20   XYZ
    dof rx rz
    limits (-45.0 90.0)
           (-20.0 70.0)
  end
  begin
     id 10 
     name rtoes
     direction -1.53525e-011 -4.21868e-011 1   
     length 1.15233   
     axis -90 -7.62852e-016 -20   XYZ
    dof rx
    limits (-90.0 20.0)
  end
  begin
     id 11 
     name lowerback
     direction 0.0287568 0.999577 -0.00434502   
     length 2.15243   
     axis 0 0 0   XYZ
    dof rx ry rz
    limits (-20.0 45.0)
           (-30.0 30.0)
           (-30.0 30.0)
  end
  begin
     id 12 
     name upperback
     direction 0.0294009 0.99956 0.00404628   
     length 2.15427   
     axis 0 0 0   XYZ
    dof rx ry rz
    limits (-20.0 45.0)
           (-30.0 30.0)
           (-30.0 30.0)
  end
  begin
     id 13 
     name thorax
     direction 0.0151014 0.999868 0.0059419   
     length 2.14898   
     axis 0 0 0   XYZ
    dof rx ry rz
    limits (-20.0 45.0)
           (-30.0 30.0)
           (-30.0 30.0)
  end
  begin
     id 14 
     name lowerneck
     direction -0.0249197 0.989906 0.139515   
     length 1.6861   
     axis 0 0 0   XYZ
    dof rx ry rz
    limits (-20.0 45.0)
           (-30.0 30.0)
           (-30.0 30.0)
  end
  begin
     id 15 
     name upperneck
     direction 0.0438463 0.988795 -0.142693   
     length 1.71276   
     axis 0 0 0   XYZ
    dof rx ry rz
    limits (-20.0 45.0)
           (-30.0 30.0)
           (-30.0 30.0)
  end
  begin
     id 16
     name head
     direction 0.0148499 0.997845 -0.0639186  
     length 1.7209  
     axis 0 0 0   XYZ
    dof rx ry rz
    limits (-20.0 45.0)
           (-30.0 30.0)
           (-30.0 30.0)
  end
  begin
     id 17 
     name lclavicle
     direction 0.940298 0.323464 -0.105876  
     length 3.9048  
     axis 0 0 0   XYZ
    dof ry rz
    limits (-20.0 10.0)
           (0.0 20.0)
  end
  begin
     id 18 
     name lhumerus
     direction 1 -4.48954e-011 -4.9675e-028   
     length 4.6851   
     axis 180 -30 -90   XYZ
    dof rx ry rz
    limits (-60.0 90.0)
           (-90.0 90.0)
           (-90.0 90.0)
  end
  begin
     id 19
     name lradius
     direction 1 -4.48992e-011 -1.03359e-026   
     length 3.39626   
     axis 180 -30 -90   XYZ
    dof rx
    limits (-10.0 170.0)
  end
  begin
     id 20
     name lwrist
     direction 1 -4.48906e-011 -1.67336e-026   
     length 1.69813   
     axis 9.90442e-015 90 90   XYZ
    dof ry
    limits (-180.0 0.0)
 end
  begin
     id 21 
     name lhand
     direction 1 -4.49006e-011 -3.34673e-026   
     length 0.486078   
     axis 2.1355e-014 90 90   XYZ
    dof rx rz
    limits (-90.0 90.0)
           (-45.0 45.0)
  end
  begin
     id 22 
     name lfingers
     direction 1 -4.48992e-011 -6.69345e-026   
     length 0.391889   
     axis 4.27099e-014 90 90   XYZ
    dof rx
    limits (0.0 90.0)
  end
  begin
     id 23
     name lthumb
     direction 0.707107 -6.34926e-011 0.707107   
     length 0.562676   
     axis -90 45 2.85299e-015   XYZ
    dof rx rz
    limits (-45.0 45.0)
           (-45.0 45.0)
  end
  begin
     id 24 
     name rclavicle
     direction -0.882459 0.414895 -0.221648   
     length 3.44646  
     axis 0 0 0   XYZ 
    dof ry rz
    limits (-10.0 20.0)
           (-20.0 0.0)
  end
  begin
     id 25 
     name rhumerus
     direction -1 -4.48962e-011 -2.37984e-027  
     length 5.55576   
     axis 180 30 90   XYZ
    dof rx ry rz
    limits (-90.0 60.0)
           (-90.0 90.0)
           (-90.0 90.0)
  end
  begin
     id 26 
     name rradius
     direction -1 -4.48982e-011 -6.86791e-027   
     length 3.32774   
     axis 180 30 90   XYZ
    dof rx
    limits (-10.0 170.0)
  end
  begin
     id 27 
     name rwrist
     direction -1 -4.48961e-011 -1.67336e-026   
     length 1.66387   
     axis 9.90442e-015 -90 -90   XYZ
    dof ry
    limits (-180.0 0.0)
  end
  begin
     id 28
     name rhand
     direction -1 -4.4897e-011 -3.34673e-026   
     length 0.507628   
     axis 2.1355e-014 -90 -90   XYZ
    dof rx rz
    limits (-90.0 90.0)
           (-45.0 45.0)
  end
  begin
     id 29
     name rfingers
     direction -1 -4.48854e-011 -6.69345e-026   
     length 0.409263   
     axis 4.27099e-014 -90 -90   XYZ
    dof rx
    limits (0.0 90.0)
  end
  begin
     id 30
     name rthumb
     direction -0.707107 -6.34913e-011 0.707107   
     length 0.587622   
     axis -90 -45 -2.85299e-015   XYZ
    dof rx rz
    limits (-45.0 45.0)
           (-45.0 45.0)
  end
:hierarchy
  begin
    root lhipjoint rhipjoint lowerback
    lhipjoint lfemur
    lfemur ltibia
    ltibia lfoot
    lfoot ltoes
    rhipjoint rfemur
    rfemur rtibia
    rtibia rfoot
    rfoot rtoes
    lowerback upperback
    upperback thorax
    thorax lowerneck lclavicle rclavicle
    lowerneck upperneck
    upperneck head
    lclavicle lhumerus
    lhumerus lradius
    lradius lwrist
    lwrist lhand lthumb
    lhand lfingers
    rclavicle rhumerus
    rhumerus rradius
    rradius rwrist
    rwrist rhand rthumb
    rhand rfingers
  end

#!OML:ASF E:\motion texture\Top Level 1\Subject 1\Session 1\male.ASF
:FULLY-SPECIFIED
:DEGREES
1
root 33.1733 17.5739 5.56508 -27.4367 -88.8381 35.7266
lowerback -0.0751083 -1.39007 -3.35524
upperback 0.826575 -1.83798 -0.239535
thorax 0.987414 -0.946343 1.61465
lowerneck -13.1855 -0.152335 -6.31327
upperneck 30.2506 1.62651 -3.5091
head 12.1767 -0.78161 -0.0787614
rclavicle -5.01931e-015 -5.1684e-015
rhumerus -23.2363 -5.55415 -85.9153
rradius 42.5615
rwrist 1.46527
rhand -13.3963 -20.0319
rfingers 7.12502
rthumb 12.7112 -49.6251
lclavicle -5.01931e-015 -5.1684e-015
lhumerus -14.7271 -2.71949 88.8769
lradius 36.4799
lwrist -19.156
lhand -20.5158 25.9525
lfingers 7.12502
lthumb 5.84182 55.8519
rfemur -40.0021 -7.63941 20.7223
rtibia 34.2312
rfoot -4.92967 -17.0936
rtoes 4.22932
lfemur -3.5659 -4.11213 -22.8625
ltibia 10.9042
lfoot -13.0289 -2.33815
ltoes -0.180597
2
root 33.0462 17.5518 5.56238 -35.8514 -88.6717 44.2819
lowerback 0.0934986 -1.42486 -3.54767
upperback 0.715925 -1.89276 -0.224657
thorax 0.789187 -0.970587 1.74331
lowerneck -13.2156 -0.145892 -6.31006
upperneck 30.2918 1.65037 -3.55592
head 12.2004 -0.779876 -0.0945913
rclavicle -6.90777e-015 7.7526e-015
rhumerus -23.9418 -6.57029 -86.2355
rradius 41.5111
rwrist 1.81884
rhand -13.5593 -19.684
rfingers 7.12502
rthumb 12.554 -49.2869
lclavicle -6.90777e-015 7.7526e-015
lhumerus -15.2247 -1.56477 88.8482
lradius 35.7471
lwrist -19.3962
lhand -20.9196 25.9962
lfingers 7.12502
lthumb 5.45193 55.906
rfemur -39.8752 -7.26311 20.4347
rtibia 31.1262
rfoot -4.6314 -16.6108
rtoes 3.57663
lfemur -3.2457 -3.87977 -23.1419
ltibia 10.9161
lfoot -13.4758 -2.54364
ltoes 0.482241
3
root 32.9174 17.5272 5.55969 -43.5313 -88.6049 52.1363
lowerback -0.102361 -1.43964 -3.58758
upperback 0.793232 -1.90248 -0.257855
thorax 0.979122 -0.97988 1.72465
lowerneck -13.2678 -0.14693 -6.25776
upperneck 30.1362 1.64356 -3.54998
head 12.1481 -0.765858 -0.0993392
rclavicle 8.94531e-016 1.59028e-015
rhumerus -24.0629 -7.84806 -86.5982
rradius 40.0761
rwrist 2.26041
rhand -13.7939 -19.3608
rfingers 7.12502
rthumb 12.3279 -48.9773
lclavicle 8.94531e-016 1.59028e-015
lhumerus -15.466 -0.448739 88.6966
lradius 34.9349
lwrist -19.549
lhand -21.1329 26.4677
lfingers 7.12502
lthumb 5.24603 56.3827
rfemur -39.7295 -6.63564 20.1572
rtibia 28.0177
rfoot -4.35788 -16.1393
rtoes 2.56549
lfemur -2.93916 -3.71799 -23.3432
ltibia 10.9149
lfoot -13.9138 -2.62898
ltoes 0.679606
4
root 32.7833 17.5015 5.55665 -47.0657 -88.4465 55.8331
lowerback -0.347547 -1.50734 -3.66465
upperback 0.860282 -1.9803 -0.227284
thorax 1.19375 -1.02395 1.78959
lowerneck -13.1745 -0.165851 -6.25098
upperneck 29.9144 1.62118 -3.60884
head 12.0412 -0.769494 -0.121983
rclavicle 1.00883e-014 -2.5842e-015
rhumerus -24.2576 -9.08582 -86.7817
rradius 38.6444
rwrist 2.33036
rhand -14.2584 -19.7746
rfingers 7.12502
rthumb 11.88 -49.4176
lclavicle 1.00883e-014 -2.5842e-015
lhumerus -15.8468 0.544778 88.619
lradius 34.0675
lwrist -19.6464
lhand -21.1291 26.7279
lfingers 7.12502
lthumb 5.24972 56.6429
rfemur -39.3856 -5.73078 19.6132
rtibia 25.039
rfoot -4.61048 -15.956
rtoes 2.80914
lfemur -2.67103 -3.58463 -23.5557
ltibia 11.0225
lfoot -14.3904 -2.78471
ltoes 1.08544
5
root 32.6496 17.4759 5.5535 -49.974 -88.2931 58.8964
lowerback -0.524503 -1.56077 -3.74305
upperback 0.909604 -2.04213 -0.195312
thorax 1.35139 -1.05905 1.85879
lowerneck -13.1527 -0.177138 -6.23658
upperneck 29.751 1.61142 -3.64878
head 11.9723 -0.767471 -0.137974
rclavicle -4.17448e-015 2.5842e-015
rhumerus -24.4706 -10.3546 -86.9079
rradius 37.2626
rwrist 2.37997
rhand -14.6339 -20.0214
rfingers 7.12502
rthumb 11.5178 -49.6849
lclavicle -4.17448e-015 2.5842e-015
lhumerus -16.2241 1.54147 88.5269
lradius 33.2226
lwrist -19.7473
lhand -21.1485 26.9874
lfingers 7.12502
lthumb 5.23094 56.9029
rfemur -39.0699 -4.80474 19.0546
rtibia 22.0571
rfoot -4.6583 -15.8874
rtoes 2.2471
lfemur -2.37445 -3.4368 -23.7494
ltibia 11.0984
lfoot -14.8592 -2.95466
ltoes 1.50157
6
root 32.5137 17.4496 5.55017 -51.484 -88.1425 60.5522
lowerback -0.690577 -1.61931 -3.80715
upperback 0.950491 -2.11148 -0.138814
thorax 1.49544 -1.0976 1.9451
lowerneck -13.1326 -0.189568 -6.23696
upperneck 29.5984 1.60208 -3.68345
head 11.9083 -0.766974 -0.149579
rclavicle 5.64051e-015 6.95746e-015
rhumerus -24.6582 -11.62 -86.9268
rradius 35.8621
rwrist 2.24442
rhand -15.0189 -20.491
rfingers 7.12502
rthumb 11.1465 -50.175
lclavicle 5.64051e-015 6.95746e-015
lhumerus -16.645 2.46002 88.4475
lradius 32.3373
lwrist -19.8211
lhand -21.0758 27.1592
lfingers 7.12502
lthumb 5.30114 57.0729
rfemur -38.7011 -3.73289 18.4025
rtibia 19.2008
rfoot -4.7953 -16.0619
rtoes 1.54981
lfemur -2.07219 -3.30029 -23.9134
ltibia 11.1983
lfoot -15.3362 -3.14132
ltoes 1.91002
7
root 32.3757 17.4226 5.54685 -51.8855 -87.998 61.0869
lowerback -0.808131 -1.68244 -3.85483
upperback 0.965095 -2.18997 -0.0548149
thorax 1.5866 -1.13944 2.0519
lowerneck -13.1168 -0.201879 -6.24573
upperneck 29.4711 1.59733 -3.72685
head 11.8555 -0.768222 -0.16286
rclavicle -1.02126e-014 -1.58034e-014
rhumerus -24.872 -12.8429 -86.8234
rradius 34.4925
rwrist 1.93707
rhand -15.3662 -21.0979
rfingers 7.12502
rthumb 10.8115 -50.7996
lclavicle -1.02126e-014 -1.58034e-014
lhumerus -17.1262 3.30452 88.3823
lradius 31.3991
lwrist -19.8907
lhand -20.9345 27.1656
lfingers 7.12502
lthumb 5.43755 57.0758
rfemur -38.3341 -2.58939 17.7006
rtibia 16.6141
rfoot -5.04752 -16.4856
rtoes 0.765881
lfemur -1.76198 -3.18178 -24.0483
ltibia 11.3241
lfoot -15.8142 -3.33203
ltoes 2.28622
8
root 32.2363 17.3948 5.54407 -51.8239 -87.874 61.1505
lowerback -0.859255 -1.738 -3.86965
upperback 0.940268 -2.26273 0.0477514
thorax 1.59933 -1.17617 2.1623
lowerneck -13.1068 -0.209393 -6.24513
upperneck 29.3795 1.59896 -3.77619
head 11.8183 -0.76858 -0.179689
rclavicle -3.72721e-015 1.73937e-014
rhumerus -25.1319 -14.0224 -86.5922
rradius 33.1677
rwrist 1.556
rhand -15.6041 -21.7389
rfingers 7.12502
rthumb 10.582 -51.4525
lclavicle -3.72721e-015 1.73937e-014
lhumerus -17.6748 4.07523 88.3171
lradius 30.3915
lwrist -19.9875
lhand -20.6917 27.022
lfingers 7.12502
lthumb 5.67204 56.9261
rfemur -38.0418 -1.50857 17.0474
rtibia 14.4565
rfoot -5.39916 -17.0575
rtoes -0.150963
lfemur -1.45388 -3.07684 -24.1534
ltibia 11.481
lfoot -16.2872 -3.51167
ltoes 2.6065
9
root 32.0958 17.3665 5.54187 -51.5103 -87.7698 60.9444
lowerback -0.889289 -1.78992 -3.84455
upperback 0.916264 -2.33232 0.159262
thorax 1.59987 -1.21074 2.26028
lowerneck -13.1123 -0.217447 -6.23838
upperneck 29.2909 1.59887 -3.82026
head 11.7854 -0.768427 -0.195849
rclavicle 9.70939e-015 2.39039e-014
rhumerus -25.3809 -15.167 -86.2531
rradius 31.8934
rwrist 1.24038
rhand -15.6694 -22.3517
rfingers 7.12502
rthumb 10.5191 -52.0685
lclavicle 9.70939e-015 2.39039e-014
lhumerus -18.2257 4.79995 88.2334
lradius 29.3061
lwrist -20.1494
lhand -20.3342 26.7191
lfingers 7.12502
lthumb 6.0172 56.6136
rfemur -37.8671 -0.660918 16.5507
rtibia 12.8808
rfoot -5.82316 -17.6014
rtoes -1.0734
lfemur -1.13862 -2.98731 -24.2344
ltibia 11.6712
lfoot -16.7492 -3.67068
ltoes 2.85239
10
root 31.9544 17.3379 5.54045 -51.1625 -87.6809 60.6827
lowerback -0.896962 -1.83654 -3.78485
upperback 0.894761 -2.39643 0.274266
thorax 1.58893 -1.24208 2.34337
lowerneck -13.1303 -0.229924 -6.21416
upperneck 29.2018 1.59066 -3.86733
head 11.7549 -0.770211 -0.217163
rclavicle 4.96923e-015 -1.1587e-014
rhumerus -25.6344 -16.278 -85.8011
rradius 30.6933
rwrist 1.12716
rhand -15.5102 -22.8259
rfingers 7.12502
rthumb 10.6727 -52.5349
lclavicle 4.96923e-015 -1.1587e-014
lhumerus -18.7766 5.5295 88.1127
lradius 28.163
lwrist -20.4607
lhand -19.7653 26.2576
lfingers 7.12502
lthumb 6.56641 56.1358
rfemur -37.8427 -0.205682 16.3106
rtibia 11.9979
rfoot -6.23804 -17.9089
rtoes -1.88723
lfemur -0.814515 -2.92133 -24.3066
ltibia 11.8951
lfoot -17.1918 -3.79302
ltoes 3.00014
11
root 31.8122 17.3098 5.5398 -50.9043 -87.5996 60.4816
lowerback -0.934451 -1.88028 -3.70057
upperback 0.919614 -2.45532 0.385935
thorax 1.64095 -1.27244 2.40737
lowerneck -13.1749 -0.243785 -6.16617
upperneck 29.0781 1.57736 -3.90892
head 11.7162 -0.768539 -0.240484
rclavicle 2.75441e-014 5.41688e-015
rhumerus -25.8222 -17.3837 -85.2538
rradius 29.5618
rwrist 1.32616
rhand -15.1111 -23.1033
rfingers 7.12502
rthumb 11.0576 -52.792
lclavicle 2.75441e-014 5.41688e-015
lhumerus -19.2678 6.30381 87.9404
lradius 26.9934
lwrist -20.9624
lhand -18.6899 25.977
lfingers 7.12502
lthumb 7.60443 55.8203
rfemur -37.9548 -0.163809 16.3413
rtibia 11.8207
rfoot -6.56505 -17.8901
rtoes -2.40501
lfemur -0.476945 -2.87517 -24.3816
ltibia 12.1595
lfoot -17.6152 -3.88257
ltoes 3.08943
